<?xml version="1.0" encoding="utf-8"?>
<!-- Generator: Adobe Illustrator 26.0.3, SVG Export Plug-In . SVG Version: 6.00 Build 0)  -->
<svg version="1.1" xmlns="http://www.w3.org/2000/svg" xmlns:xlink="http://www.w3.org/1999/xlink" x="0px" y="0px"
	 viewBox="0 0 2000 684.1443" style="enable-background:new 0 0 2000 684.1443;" xml:space="preserve">
<style type="text/css">
	.st0{fill:#412DDC;}
</style>
<g id="Ebene_1">
</g>
<g id="Ebene_2">
	<g id="Ebene_1_00000087379663538115244230000007289071449435198639_">
		<g>
			<g>
				<g>
					<path class="st0" d="M273.8813,0l-18.8949,154.1839h-78.9261L195.0387,0H80.6832L30.1849,411.0756h114.3555l22.154-180.0848
						h78.8426l-22.154,180.0848h114.3555L388.2368,0H273.8813z"/>
					<path class="st0" d="M432.8709,2.2803l-9.2844,75.5039h114.3535l9.2864-75.5039H432.8709z M420.0013,106.6177
						l-37.3841,304.4579h114.3555l37.4656-304.4579H420.0013z"/>
				</g>
				<path class="st0" d="M1135.3733,165.1794l-0.4077-58.5617h-97.7394l-37.3841,304.4579h114.3535l21.1777-172.0214
					c1.7101-14.1721,10.3442-20.1178,29.4857-20.1178h54.7338l14.6614-118.9166
					C1191.5726,100.0198,1156.9567,126.4099,1135.3733,165.1794z"/>
				<path class="st0" d="M1263.7954,106.5778h114.3672l-37.3903,304.5068H1226.417L1263.7954,106.5778z M1276.6091,2.2963h114.3553
					l-9.2589,75.5126h-114.3672L1276.6091,2.2963z"/>
				<path class="st0" d="M1712.9618,106.5778l-136.6525,304.5068h-109.7969l-62.5334-304.5068h116.1033l15.3057,190.612
					l61.4706-190.612H1712.9618z"/>
				<path class="st0" d="M1998.9126,186.153l-11.4437,93.2038h-166.2128l-6.2474,50.948
					c-1.2637,10.2274,1.4762,17.8566,24.2103,17.8566c20.8091,0,26.9502-4.3933,28.1194-13.9593l3.0942-25.1787h113.3988
					l-2.8462,23.1474c-6.7908,55.294-37.0714,85.4801-150.293,85.4801c-118.9495,0-136.3809-35.7368-129.0587-95.4713
					l15.5654-126.6967c7.334-59.7109,33.552-95.4477,152.4896-95.4477C1982.9102,100.0351,2005.6915,130.9535,1998.9126,186.153z
					 M1861.1619,169.5247c-22.7578,0-27.3518,7.6056-28.6036,17.833l-5.6805,46.2712h52.8138l6.0703-49.4835
					C1886.9429,174.5557,1881.9591,169.5247,1861.1619,169.5247z"/>
				<path class="st0" d="M851.1967,0H701.5729l-18.8969,153.8583h-97.1688l-9.3659,76.8069h97.0872l-22.1541,180.4104h149.6238
					c126.5709,0,161.5131-35.2673,169.0873-96.436l26.7972-218.2031C1004.0756,35.2678,977.7676,0,851.1967,0z M881.8218,99.5311
					L855.7563,311.626c-1.7101,13.8465-11.076,22.6427-45.6105,22.6427h-35.2683l12.8697-104.9071h-56.1179l9.0397-74.2819h56.1994
					l9.6125-78.2729h35.2663C876.3633,76.8069,883.5319,85.6036,881.8218,99.5311z"/>
			</g>
			<g>
				<path class="st0" d="M110.5972,539.2612l-9.4614,77.0629c-2.2112,18.0159-14.2417,30.3447-54.8392,30.3447H0l16.9143-137.7523
					h46.2926C103.8044,508.9164,112.8124,521.2452,110.5972,539.2612z M61.123,525.8904H38.4976L25.7473,629.6988h22.6333
					c23.1264,0,28.3363-7.2263,29.2829-14.9139l9.0835-73.9846C87.6895,533.1127,84.2533,525.8904,61.123,525.8904z"/>
				<path class="st0" d="M216.8713,570.5604l-3.6191,29.4777H149.409l-2.5334,20.6368
					c-0.7914,6.4507-0.0398,12.6072,18.6284,12.6072c16.8706,0,20.5652-3.1657,21.2811-9.012l1.4158-11.5056h23.4923
					l-1.4556,11.8317c-1.9249,15.6815-12.7026,24.3116-46.6505,24.3116c-36.4256,0-42.3633-12.0424-40.3151-28.7181l5.6235-45.8193
					c2.0482-16.6796,10.9408-28.7221,47.3704-28.7221C210.2138,545.6483,218.7962,554.8948,216.8713,570.5604z M174.345,561.278
					c-18.6682,0-20.9311,6.1564-21.7225,12.6031l-1.6425,13.3867h40.3509l2.0084-16.3774
					C194.0591,565.0403,191.2155,561.278,174.345,561.278z"/>
				<path class="st0" d="M301.256,583.263l1.6664-13.5696c0.5727-4.6531-2.2709-8.4153-18.5449-8.4153
					c-16.2701,0-19.9647,3.1617-20.5374,7.8148l-1.0579,8.6381c-2.076,16.9064,62.1331,9.0398,58.6771,37.2091l-1.376,11.2032
					c-1.7817,14.4803-12.6867,22.7645-46.4636,22.7645s-42.5343-9.2307-40.7566-23.7111l1.7061-13.9037h23.4923l-1.6664,13.5736
					c-0.5727,4.6531,2.2709,8.4154,19.1414,8.4154c16.8705,0,20.5652-3.1657,21.1379-7.8149l1.0579-8.6421
					c2.076-16.9023-61.9581-9.0358-58.5021-37.2051l1.3761-11.2033c1.7777-14.4684,12.5117-22.7685,45.6921-22.7685
					c33.1764,0,41.7588,9.2466,39.981,23.715l-1.7061,13.8997H301.256z"/>
				<path class="st0" d="M353.8004,547.8873h23.6633l-12.1259,98.7814h-23.6673L353.8004,547.8873z M357.9763,513.8679h23.6673
					l-2.1953,17.8648H355.785L357.9763,513.8679z"/>
				<path class="st0" d="M389.017,659.9163l1.6743-13.5935h23.2537l-1.6147,13.1799c-0.7198,5.8463,2.1118,9.012,18.5409,9.012
					c18.2267,0,20.4061-6.1564,21.1976-12.6032l2.764-22.5259c-5.7031,4.4265-14.9178,7.5206-29.0045,7.5206
					c-30.1658,0-34.4967-11.7044-32.6037-27.1234l5.0309-40.9912c1.8931-15.4189,9.0994-27.1234,39.2652-27.1234
					c16.5643,0,25.7393,4.3628,29.7323,10.6266l2.426-8.3876h19.3164l-13.1918,107.4275
					c-2.0482,16.6796-10.9527,28.8096-46.8494,28.8096C395.5274,684.1443,387.0921,675.5977,389.017,659.9163z M457.3623,612.7964
					l4.7724-38.8476c0.7914-6.4468-0.5966-12.3049-18.6682-12.3049c-18.0676,0-20.8953,5.8582-21.6867,12.3049l-4.7685,38.8476
					c-0.7914,6.4468,0.5966,12.309,18.6642,12.309C453.7432,625.1053,456.5708,619.2432,457.3623,612.7964z"/>
				<path class="st0" d="M514.2576,547.8873h19.3164l0.3381,9.1432c6.9001-7.4131,17.4512-11.3823,32.9497-11.3823
					c25.7433,0,34.1149,10.0818,31.8798,28.2806l-8.9284,72.7399h-23.6673l8.7495-71.2405
					c1.1136-9.0836-3.7702-13.8043-17.8847-13.8043c-14.1144,0-21.4123,5.202-22.506,14.1026l-8.7097,70.9422h-23.6673
					L514.2576,547.8873z"/>
				<path class="st0" d="M627.2013,547.8873h23.6633l-12.1259,98.7814h-23.6673L627.2013,547.8873z M631.3771,513.8679h23.6673
					l-2.1953,17.8648h-23.6633L631.3771,513.8679z"/>
				<path class="st0" d="M676.0392,547.8873h19.3164l0.3381,9.1432c6.9001-7.4131,17.4512-11.3823,32.9496-11.3823
					c25.7433,0,34.115,10.0818,31.8799,28.2806l-8.9284,72.7399h-23.6673l8.7495-71.2405
					c1.1136-9.0836-3.7702-13.8043-17.8847-13.8043s-21.4124,5.202-22.506,14.1026l-8.7097,70.9422h-23.6673L676.0392,547.8873z"/>
				<path class="st0" d="M775.278,659.9163l1.6743-13.5935h23.2537l-1.6147,13.1799c-0.7198,5.8463,2.1118,9.012,18.5409,9.012
					c18.2267,0,20.4061-6.1564,21.1976-12.6032l2.764-22.5259c-5.7031,4.4265-14.9178,7.5206-29.0045,7.5206
					c-30.1658,0-34.4968-11.7044-32.6037-27.1234l5.0309-40.9912c1.8931-15.4189,9.0994-27.1234,39.2652-27.1234
					c16.5643,0,25.7354,4.3628,29.7323,10.6266l2.426-8.3876h19.3164l-13.1918,107.4275
					c-2.0482,16.6796-10.9528,28.8096-46.8494,28.8096C781.7884,684.1443,773.3531,675.5977,775.278,659.9163z M843.6232,612.7964
					l4.7724-38.8476c0.7914-6.4468-0.5966-12.3049-18.6682-12.3049c-18.0676,0-20.8953,5.8582-21.6868,12.3049l-4.7684,38.8476
					c-0.7914,6.4468,0.5966,12.309,18.6642,12.309S842.8318,619.2432,843.6232,612.7964z"/>
				<path class="st0" d="M1010.4437,612.4146h-42.073l-14.2258,34.2542h-24.5422l61.0076-137.7523h24.3115l26.0894,137.7523
					h-25.2104L1010.4437,612.4146z M1007.791,595.4526l-8.8568-56.6289l-23.5201,56.6289H1007.791z"/>
				<path class="st0" d="M1060.4349,620.6312l8.9324-72.7438h23.6633l-8.7455,71.2445
					c-1.1176,9.0795,3.7662,13.8043,17.2842,13.8043s20.8118-5.202,21.9054-14.1065l8.7097-70.9423h23.6674l-12.126,98.7814
					h-19.3204l-0.338-9.1432c-6.6417,7.1984-18.028,11.3823-32.6077,11.3823
					C1065.6527,648.9078,1058.1998,638.826,1060.4349,620.6312z"/>
				<path class="st0" d="M1199.8815,620.1062c-0.7915,6.4507,0.1432,11.1078,10.4318,11.1078h14.8383l-1.8971,15.4547h-18.9187
					c-25.437,0-30.1101-10.3721-28.0579-27.0478l6.9081-56.2789h-11.1556l1.8931-15.4547h11.1595l2.3147-18.8551l24.7053-8.4671
					l-3.3527,27.3222h26.6342l-1.8971,15.4547h-26.6381L1199.8815,620.1062z"/>
				<path class="st0" d="M1334.0784,574.0681l-5.6991,46.4199c-2.0482,16.6757-10.905,28.4199-47.3307,28.4199
					c-36.4255,0-42.4031-11.7441-40.3549-28.4199l5.6991-46.4199c2.0481-16.6757,10.905-28.4199,47.3346-28.4199
					C1330.153,545.6483,1336.1265,557.3925,1334.0784,574.0681z M1310.4707,573.5829c0.7914-6.4467,0.0039-12.3049-18.6642-12.3049
					c-18.6682,0-20.8954,5.8582-21.6868,12.3049l-5.8184,47.3903c-0.7915,6.4507-0.004,12.3089,18.6642,12.3089
					c18.6681,0,20.8953-5.8582,21.6868-12.3089L1310.4707,573.5829z"/>
				<path class="st0" d="M1468.0803,545.6522c22.7526,0,31.2356,9.183,28.9647,27.6761l-9.004,73.3404h-23.6672l8.821-71.837
					c1.1533-9.3818-3.8379-13.2037-14.9617-13.2037c-11.1237,0-18.3102,4.2991-19.4397,13.502l-8.7853,71.5388h-22.7924
					l8.8171-71.837c1.1533-9.3818-3.8379-13.2037-14.9615-13.2037c-11.1238,0-18.3103,4.2991-19.4397,13.502l-8.7853,71.5388
					h-23.6633l12.1299-98.7775h19.3164l0.3619,8.475c6.6178-7.1268,16.3774-10.7181,29.4937-10.7181
					c14.3253,0,23.2697,3.7861,26.9364,11.5771c6.4547-7.795,16.5166-11.5771,30.6589-11.5771V545.6522z"/>
				<path class="st0" d="M1608.5012,574.3704l-8.8767,72.2984h-19.3164l-0.6045-6.4587
					c-5.7509,5.3133-16.7155,8.6978-33.8962,8.6978c-27.175,0-33.0531-8.833-31.5419-21.1617l2.1238-17.3041
					c1.5153-12.3248,9.5449-20.9868,36.7159-20.9868c14.8025,0,24.0848,2.2072,29.1636,5.8303l2.6288-21.4044
					c0.7914-6.4467,0.1233-12.6031-18.1034-12.6031c-15.8326,0-19.4397,3.1617-20.1556,9.0119l-1.5829,12.8737h-23.2576
					l1.6425-13.3748c1.9249-15.6814,12.4481-24.1406,45.2745-24.1406C1604.6117,545.6483,1610.5494,557.6907,1608.5012,574.3704z
					 M1578.3911,626.8791l1.913-15.5701c0.4932-4.0526-3.619-7.2144-21.0901-7.2144c-15.6736,0-18.7677,3.1617-19.2648,7.2144
					l-1.913,15.5701c-0.4971,4.0526,1.8215,7.2183,17.495,7.2183C1573.0023,634.0974,1577.894,630.9316,1578.3911,626.8791z"/>
				<path class="st0" d="M1655.7285,620.1062c-0.7915,6.4507,0.1431,11.1078,10.4316,11.1078h14.8384l-1.8971,15.4547h-18.9187
					c-25.4371,0-30.1101-10.3721-28.058-27.0478l6.9081-56.2789h-11.1555l1.8931-15.4547h11.1595l2.3147-18.8551l24.7052-8.4671
					l-3.3525,27.3222h26.6342l-1.8971,15.4547h-26.6382L1655.7285,620.1062z"/>
				<path class="st0" d="M1706.8651,547.8873h23.6633l-12.126,98.7814h-23.6674L1706.8651,547.8873z M1711.041,513.8679h23.6672
					l-2.1953,17.8648h-23.6633L1711.041,513.8679z"/>
				<path class="st0" d="M1838.8468,574.0681l-5.6991,46.4199c-2.0482,16.6757-10.905,28.4199-47.3307,28.4199
					c-36.4255,0-42.4031-11.7441-40.3549-28.4199l5.6991-46.4199c2.0481-16.6757,10.905-28.4199,47.3346-28.4199
					C1834.9214,545.6483,1840.8949,557.3925,1838.8468,574.0681z M1815.2391,573.5829c0.7914-6.4467,0.0039-12.3049-18.6642-12.3049
					c-18.6682,0-20.8954,5.8582-21.6868,12.3049l-5.8184,47.3903c-0.7915,6.4507-0.004,12.3089,18.6642,12.3089
					s20.8953-5.8582,21.6868-12.3089L1815.2391,573.5829z"/>
				<path class="st0" d="M1866.0854,547.8873h19.3164l0.338,9.1432c6.9001-7.4131,17.4513-11.3823,32.9497-11.3823
					c25.7433,0,34.115,10.0818,31.8799,28.2806l-8.9285,72.7399h-23.6672l8.7494-71.2405
					c1.1136-9.0836-3.7701-13.8043-17.8846-13.8043s-21.4124,5.202-22.506,14.1026l-8.7097,70.9422h-23.6674L1866.0854,547.8873z"/>
			</g>
		</g>
	</g>
</g>
</svg>
