<?xml version="1.0" encoding="UTF-8" standalone="no"?>
<svg
   version="1.0"
   width="996.39722pt"
   height="269.66006pt"
   viewBox="0 0 996.39722 269.66006"
   preserveAspectRatio="xMidYMid"
   id="svg64"
   sodipodi:docname="simple-simulation.svg"
   inkscape:version="1.4.2 (f4327f4, 2025-05-13)"
   xmlns:inkscape="http://www.inkscape.org/namespaces/inkscape"
   xmlns:sodipodi="http://sodipodi.sourceforge.net/DTD/sodipodi-0.dtd"
   xmlns="http://www.w3.org/2000/svg"
   xmlns:svg="http://www.w3.org/2000/svg">
  <defs
     id="defs64" />
  <sodipodi:namedview
     id="namedview64"
     pagecolor="#ffffff"
     bordercolor="#eeeeee"
     borderopacity="1"
     inkscape:showpageshadow="0"
     inkscape:pageopacity="0"
     inkscape:pagecheckerboard="0"
     inkscape:deskcolor="#505050"
     inkscape:document-units="pt"
     showguides="false"
     inkscape:zoom="0.85867898"
     inkscape:cx="315.01877"
     inkscape:cy="143.82558"
     inkscape:window-width="1920"
     inkscape:window-height="1009"
     inkscape:window-x="3832"
     inkscape:window-y="-8"
     inkscape:window-maximized="1"
     inkscape:current-layer="svg64" />
  <path
     d="m 147.65434,11.171225 v 11.9 l -15.7,0.6 c -31.999998,1.2 -55.199998,8.2 -78.199998,23.4 -10.6,7 -26.1,22.3 -32.4,31.9 -24.4000005,37.099995 -28.2000005,83.599995 -9.8,121.899995 13.3,27.8 39,50 71.1,61.3 20.299998,7.1 29.899998,7.8 105.799998,7.4 l 53.2,-0.2 -0.6,-2.8 c -0.3,-1.5 -2.6,-6.9 -5,-12.1 -3.7,-7.8 -5.8,-10.8 -11.7,-16.5 -9.4,-9.3 -19,-14.2 -36.7,-19.1 -1.4,-0.4 -17.1,-1.1 -35,-1.5 -34.3,-0.9 -40,-1.6 -54.599998,-6.5 -13.2,-4.4 -21.1,-9.2 -30,-18 -14.3,-14.2 -20.1,-29.8 -19.1,-51.4 0.6,-13.3 2.9,-22.5 8.7,-34.9 7.2,-15.299995 18.5,-28.299995 31.2,-35.999995 13.499998,-8.1 32.599998,-14 48.599998,-14.9 l 10.2,-0.6 v 12.2 12.2 l 7.4,-5.3 c 4.1,-2.9 16.3,-11.5 27.1,-19.2 10.8,-7.6 19.4,-14.3 19.3,-15 -0.3,-1 -47.7,-37.1000002 -52,-39.7000002 -1.7,-0.9 -1.8,-0.1 -1.8,10.9000002 z"
     id="path1"
     style="fill:#00539a;fill-opacity:1;stroke:none;stroke-width:0.1" />
  <path
     id="path10"
     style="fill:#00539a;fill-opacity:1;stroke:none;stroke-width:0.1"
     d="M 168.57275 104.76416 L 168.57275 118.7666 C 175.97789 118.89131 179.68341 119.26938 181.1543 119.87109 C 185.7543 121.77109 200.35469 136.07158 199.05469 137.37158 C 198.4566 137.96967 188.44159 138.20207 168.57275 138.19482 L 168.57275 176.37158 L 169.1543 176.37158 L 191.6543 176.37158 L 193.75488 180.57129 C 197.65488 188.37129 203.25459 192.67168 211.45459 193.97168 C 220.25459 195.37168 232.35381 187.67119 234.15381 179.47119 C 234.75381 176.67119 235.15488 176.37158 238.75488 176.37158 C 248.35488 176.37158 251.6543 171.7709 251.6543 158.1709 C 251.5543 142.2709 246.754 136.07051 231.854 132.77051 C 220.854 130.47051 213.45479 126.57158 203.15479 117.87158 C 198.25479 113.67158 191.95381 108.9708 189.15381 107.5708 L 184.1543 104.87109 L 168.57275 104.76416 z M 214.1543 162.47168 C 216.4543 162.47168 219.05391 163.1709 220.25391 164.1709 C 225.65391 168.4709 226.05439 174.17168 221.25439 178.97168 C 218.45439 181.77168 217.05479 182.37158 213.65479 182.37158 C 210.25479 182.37158 208.85371 181.77168 206.05371 178.97168 C 199.05371 171.97168 203.6543 162.47168 214.1543 162.47168 z " />
  <g
     id="text64"
     style="font-size:127.5px;line-height:1;font-family:'Noto Mono';-inkscape-font-specification:'Noto Mono';letter-spacing:0px;word-spacing:0px;stroke-width:0.75;fill:#00539a;fill-opacity:1"
     aria-label="simple-&#10;simulation">
    <path
       style="font-weight:900;font-family:Arial;-inkscape-font-specification:'Arial Heavy';fill:#00539a;fill-opacity:1"
       d="m 279.70779,119.73926 25.15137,-2.36572 q 1.5564,4.48242 4.35791,6.41235 2.80152,1.92993 7.4707,1.92993 5.10499,0 7.9065,-2.17895 2.17895,-1.61866 2.17895,-4.04664 0,-2.73925 -2.86377,-4.23339 -2.05444,-1.05835 -10.89477,-2.61475 -13.19824,-2.30347 -18.36548,-4.2334 -5.10498,-1.99219 -8.65356,-6.66138 -3.48633,-4.669185 -3.48633,-10.645748 0,-6.536865 3.79761,-11.26831 3.7976,-4.731445 10.45898,-7.034912 6.66138,-2.365723 17.86743,-2.365723 11.82861,0 17.43164,1.80542 5.66529,1.80542 9.40064,5.603027 3.7976,3.797608 6.28784,10.272217 l -24.03076,2.365723 q -0.93384,-3.175049 -3.1128,-4.66919 -2.98828,-1.992187 -7.22168,-1.992187 -4.29565,0 -6.28784,1.556396 -1.92993,1.494141 -1.92993,3.673096 0,2.427979 2.49024,3.673096 2.49023,1.245117 10.83251,2.241211 12.63794,1.431885 18.80127,3.984375 6.16333,2.552489 9.40064,7.283939 3.29956,4.73144 3.29956,10.39672 0,5.72754 -3.48633,11.1438 -3.42407,5.41626 -10.89477,8.65357 -7.40845,3.17505 -20.23316,3.17505 -18.11645,0 -25.83618,-5.16724 -7.65747,-5.16724 -9.83643,-14.69238 z m 83.29834,-72.963869 h 25.33814 v 17.244873 h -25.33814 z m 0,25.151367 h 25.33814 v 66.115722 h -25.33814 z m 41.71143,0 h 23.65723 v 9.649658 q 5.10498,-6.038818 10.27221,-8.591309 5.2295,-2.55249 12.57569,-2.55249 7.90649,0 12.51342,2.801514 4.60694,2.801514 7.53296,8.342285 5.97657,-6.474609 10.89478,-8.778076 4.91821,-2.365723 12.13989,-2.365723 10.64575,0 16.62232,6.350098 5.97656,6.287842 5.97656,19.735107 v 41.524658 h -25.40039 v -37.66479 q 0,-4.482426 -1.74317,-6.661381 -2.55249,-3.424073 -6.35009,-3.424073 -4.48243,0 -7.22168,3.237305 -2.73926,3.237305 -2.73926,10.396729 v 34.11621 H 448.04764 V 101.6228 q 0,-4.357907 -0.49805,-5.914304 -0.80933,-2.490234 -2.80151,-3.984375 -1.99219,-1.556396 -4.66919,-1.556396 -4.35791,0 -7.15943,3.29956 -2.80151,3.299561 -2.80151,10.832515 v 33.74268 H 404.71756 Z M 532.1553,163.19385 V 71.926758 h 23.71949 v 9.77417 q 4.91821,-6.16333 9.0271,-8.342285 5.54077,-2.926026 12.2644,-2.926026 13.2605,0 20.48218,10.147705 7.28393,10.147705 7.28393,25.089108 0,16.49781 -7.90649,25.21363 -7.90649,8.65356 -19.98413,8.65356 -5.85205,0 -10.70801,-1.99219 -4.7937,-1.99218 -8.59131,-5.9143 v 31.56372 z m 25.40039,-58.02246 q 0,7.84424 3.29957,11.64184 3.29956,3.79761 8.34228,3.79761 4.42017,0 7.40845,-3.61084 2.98828,-3.6731 2.98828,-12.38892 0,-8.031002 -3.11279,-11.766353 -3.1128,-3.797608 -7.59522,-3.797608 -4.85596,0 -8.09326,3.797608 -3.23731,3.797607 -3.23731,12.326663 z m 60.38819,-58.395999 h 25.40039 v 91.267089 h -25.40039 z m 114.98657,64.497069 h -50.80078 q 0.68481,6.10108 3.29956,9.08936 3.6731,4.29565 9.5874,4.29565 3.73535,0 7.09717,-1.86768 2.05444,-1.18286 4.42017,-4.17114 l 24.9646,2.30347 q -5.72754,9.96094 -13.82081,14.31885 -8.09326,4.29565 -23.22143,4.29565 -13.13599,0 -20.66895,-3.67309 -7.53295,-3.73536 -12.51342,-11.76636 -4.91822,-8.09326 -4.91822,-18.98804 0,-15.501708 9.89869,-25.08911 9.96093,-9.587403 27.45483,-9.587403 14.19433,0 22.41211,4.295654 8.21777,4.295655 12.51343,12.451172 4.29565,8.155518 4.29565,21.229247 z M 707.15652,99.132568 q -0.74707,-7.346191 -3.98437,-10.52124 -3.17505,-3.175049 -8.40454,-3.175049 -6.03882,0 -9.64966,4.793701 -2.30347,2.988282 -2.92602,8.902588 z m 32.55982,-4.171142 h 36.85547 v 19.610594 h -36.85547 z"
       id="path2" />
    <path
       style="font-weight:900;font-family:Arial;-inkscape-font-specification:'Arial Heavy';fill:#00539a;fill-opacity:1"
       d="m 279.70779,249.80044 25.15137,-2.36572 q 1.5564,4.48242 4.35791,6.41235 2.80152,1.92993 7.4707,1.92993 5.10499,0 7.9065,-2.17895 2.17895,-1.61865 2.17895,-4.04663 0,-2.73926 -2.86377,-4.2334 -2.05444,-1.05835 -10.89477,-2.61475 -13.19824,-2.30346 -18.36548,-4.23339 -5.10498,-1.99219 -8.65356,-6.66138 -3.48633,-4.66919 -3.48633,-10.64575 0,-6.53687 3.79761,-11.26831 3.7976,-4.73145 10.45898,-7.03492 6.66138,-2.36572 17.86743,-2.36572 11.82861,0 17.43164,1.80542 5.66529,1.80542 9.40064,5.60303 3.7976,3.79761 6.28784,10.27222 l -24.03076,2.36572 q -0.93384,-3.17505 -3.1128,-4.66919 -2.98828,-1.99219 -7.22168,-1.99219 -4.29565,0 -6.28784,1.5564 -1.92993,1.49414 -1.92993,3.67309 0,2.42798 2.49024,3.6731 2.49023,1.24512 10.83251,2.24121 12.63794,1.43188 18.80127,3.98437 6.16333,2.5525 9.40064,7.28394 3.29956,4.73145 3.29956,10.39673 0,5.72754 -3.48633,11.1438 -3.42407,5.41626 -10.89477,8.65356 -7.40845,3.17505 -20.23316,3.17505 -18.11645,0 -25.83618,-5.16724 -7.65747,-5.16723 -9.83643,-14.69238 z m 83.29834,-72.96387 h 25.33814 v 17.24488 h -25.33814 z m 0,25.15137 h 25.33814 v 66.11572 h -25.33814 z m 41.71143,0 h 23.65723 v 9.64966 q 5.10498,-6.03882 10.27221,-8.59131 5.2295,-2.55249 12.57569,-2.55249 7.90649,0 12.51342,2.80152 4.60694,2.80151 7.53296,8.34228 5.97657,-6.47461 10.89478,-8.77808 4.91821,-2.36572 12.13989,-2.36572 10.64575,0 16.62232,6.3501 5.97656,6.28784 5.97656,19.73511 v 41.52465 h -25.40039 v -37.66479 q 0,-4.48242 -1.74317,-6.66138 -2.55249,-3.42407 -6.35009,-3.42407 -4.48243,0 -7.22168,3.23731 -2.73926,3.2373 -2.73926,10.39672 v 34.11621 h -25.40039 v -36.41967 q 0,-4.35791 -0.49805,-5.91431 -0.80933,-2.49023 -2.80151,-3.98437 -1.99219,-1.5564 -4.66919,-1.5564 -4.35791,0 -7.15943,3.29956 -2.80151,3.29956 -2.80151,10.83252 v 33.74267 h -25.40039 z m 196.97754,66.11572 h -23.65723 v -10.708 q -5.29175,6.59912 -10.70801,9.40063 -5.354,2.80152 -13.19824,2.80152 -10.45898,0 -16.43554,-6.22559 -5.91431,-6.28784 -5.91431,-19.29932 v -42.08496 h 25.46265 v 36.35742 q 0,6.22559 2.30346,8.84034 2.30347,2.61474 6.47461,2.61474 4.54468,0 7.40845,-3.48633 2.92602,-3.48632 2.92602,-12.51342 v -31.81275 h 25.33814 z m 16.24878,-91.26709 h 25.40039 v 91.26709 h -25.40039 z m 64.68384,46.56739 -24.21753,-2.55249 q 1.36963,-6.3501 3.92212,-9.96094 2.61474,-3.6731 7.4707,-6.3501 3.48633,-1.92993 9.5874,-2.98828 6.10108,-1.05835 13.19824,-1.05835 11.39283,0 18.30323,1.30737 6.9104,1.24512 11.51733,5.29175 3.2373,2.80152 5.10498,7.96875 1.86768,5.10498 1.86768,9.77417 v 29.198 q 0,4.66919 0.5603,7.34619 0.62256,2.61475 2.61475,6.72363 h -23.78174 q -1.43189,-2.55249 -1.86768,-3.85986 -0.43579,-1.36963 -0.87158,-4.2334 -4.98047,4.7937 -9.89868,6.84815 -6.72364,2.73926 -15.62622,2.73926 -11.82862,0 -17.99195,-5.47852 -6.10107,-5.47852 -6.10107,-13.50952 0,-7.53296 4.42017,-12.38892 4.42016,-4.85595 16.31103,-7.22168 14.25659,-2.86377 18.48999,-3.98437 4.2334,-1.18286 8.96484,-3.05054 0,-4.66919 -1.92993,-6.53686 -1.92993,-1.86768 -6.78589,-1.86768 -6.22558,0 -9.33837,1.99219 -2.42798,1.55639 -3.92212,5.85205 z m 21.97631,13.32275 q -5.22949,1.86768 -10.89477,3.29956 -7.71973,2.05445 -9.77417,4.04663 -2.1167,2.05445 -2.1167,4.66919 0,2.98828 2.05444,4.91822 2.1167,1.86767 6.16333,1.86767 4.2334,0 7.84424,-2.05444 3.6731,-2.05445 5.16724,-4.98047 1.55639,-2.98828 1.55639,-7.71973 z m 68.35694,-59.89014 v 25.15137 h 13.94531 v 18.48999 h -13.94531 v 23.47046 q 0,4.2334 0.80932,5.60303 1.24512,2.1167 4.35791,2.1167 2.80152,0 7.84424,-1.61865 l 1.86768,17.49389 q -9.40064,2.05445 -17.55615,2.05445 -9.46289,0 -13.94532,-2.42798 -4.48242,-2.42798 -6.66137,-7.34619 -2.1167,-4.98047 -2.1167,-16.06202 v -23.28369 h -9.33838 v -18.48999 h 9.33838 v -12.13989 z m 26.95679,0 h 25.33813 v 17.24488 h -25.33813 z m 0,25.15137 h 25.33813 v 66.11572 h -25.33813 z m 38.41186,33.24463 q 0,-15.12817 10.20996,-24.90234 10.20996,-9.83643 27.57935,-9.83643 19.85962,0 30.00732,11.51734 8.15552,9.27612 8.15552,22.8479 0,15.25268 -10.14771,25.02685 -10.08545,9.71192 -27.95288,9.71192 -15.9375,0 -25.77392,-8.09327 -12.07764,-10.02319 -12.07764,-26.27197 z m 25.40039,-0.0623 q 0,8.84033 3.54858,13.07373 3.61084,4.23339 9.0271,4.23339 5.47852,0 8.96485,-4.17114 3.54858,-4.17114 3.54858,-13.38501 0,-8.59131 -3.54858,-12.76245 -3.54859,-4.2334 -8.77808,-4.2334 -5.54077,0 -9.15161,4.29566 -3.61084,4.23339 -3.61084,12.94922 z m 62.75391,-33.18238 h 23.59497 v 10.77027 q 5.29175,-6.59913 10.70801,-9.40064 5.41626,-2.86377 13.19824,-2.86377 10.52124,0 16.43554,6.28784 5.97657,6.22559 5.97657,19.29932 v 42.0227 H 970.9346 v -36.35742 q 0,-6.22558 -2.30347,-8.77807 -2.30346,-2.61475 -6.47461,-2.61475 -4.60693,0 -7.4707,3.48633 -2.86377,3.48633 -2.86377,12.51343 v 31.75048 h -25.33813 z"
       id="path3" />
  </g>
  <path
     style="font-weight:900;font-size:112.5px;line-height:1;font-family:Arial;-inkscape-font-specification:'Arial Heavy';letter-spacing:0px;word-spacing:0px;stroke:#00539a;stroke-width:10;fill:#00539a;fill-opacity:1;stroke-opacity:1"
     d="m 100.64531,107.26897 c -5.932618,0 -10.546876,4.83398 -10.546876,10.54687 v 63.28125 c 0,5.93262 4.614258,10.54688 10.546876,10.54688 h 7.03125 c 5.71289,0 10.54687,-4.61426 10.54687,-10.54688 v -63.28125 c 0,-5.71289 -4.83398,-10.54687 -10.54687,-10.54687 z m 42.1875,0 c -5.93262,0 -10.54688,4.83398 -10.54688,10.54687 v 63.28125 c 0,5.93262 4.61426,10.54688 10.54688,10.54688 h 7.03125 c 5.71289,0 10.54687,-4.61426 10.54687,-10.54688 v -63.28125 c 0,-5.71289 -4.83398,-10.54687 -10.54687,-10.54687 z"
     id="text64-4"
     aria-label="â¸&#10;" />
</svg>
